<?xml version="1.0" encoding="UTF-8"?><svg id="a" xmlns="http://www.w3.org/2000/svg" viewBox="0 0 748.69 167.32"><path d="M394.22,117.83c-1.72-.95-2.79-2.82-3.52-4.53-8.19-18.93-16.65-37.75-25.36-56.43-2.99-5.9,1.51-5.89,7.63-5.77,3.97.15,8.42-.9,9.53,2.82,4.71,11.29,13.15,32.65,17.39,42.39,1.13,2.57,2.78,6.53,3.85,8.79.35.68.7,1.47,1.37,1.86.75.37,1.49-.82,2.55-2.6,2.21-3.78,5.32-9.29,7.5-13.23,3.96-6.11,2.69-8.92,0-15-2.34-5.63-5.31-12.59-7.7-17.97-2.68-5.38-2.67-7.32,5.2-7.06,5.68-.21,9.87.28,11.4,5.8.8,1.44,2.69,10.63,5.06,9.4,1.3-.59,2.98-4.38,4.2-6.64,2.17-4.58,4.03-8.69,10.7-8.55,3.96.11,9.93-.82,8.36,3.13-3.8,7.06-8.79,15.13-12.53,22.08-1.18,2.23-2.67,4.44-3.15,6.8-.48,2.85.75,4.89,1.92,7.92,1.26,3.04,2.82,6.76,4.14,9.82,1.5,3,2.56,7.47,4,5.72,3.39-5.3,11.14-19.68,14.12-24.73,3.39-6.02,7.95-14.5,11.09-20.19,4.14-7.5,4.49-11.31,15.76-10.56,3.42.14,9.09-.89,6.31,3.48-2.46,4.17-6.25,10.34-8.65,14.33-7.02,11.39-19.14,33.58-28.18,47.5-2.45,2.99-6.84,2.64-10.63,2.6-3.5-.11-7.83.44-10.72-.89-2.05-.91-3.13-2.75-3.84-4.55-1.18-3.04-2.35-6.11-3.64-9.11-1.85-4.49-3.62-2.59-5.13.09-1.76,3.07-3.46,6.26-5.15,9.39-.74,1.32-1.68,2.63-3.04,3.52-2.93,2-7.21,1.5-10.97,1.56-3.22-.08-6.87.42-9.72-1.09l-.14-.08Z"/><path d="M449.12,120.03c-.53,0-1.06,0-1.58-.02h-.98c-.91-.04-1.83-.03-2.82-.01-2.93.05-5.96.1-8.31-.99-2.55-1.13-3.71-3.45-4.35-5.09l-.58-1.49c-.97-2.51-1.97-5.1-3.05-7.59-.67-1.63-1.22-2.08-1.42-2.09-.08.01-.66.04-1.92,2.27-1.45,2.52-2.87,5.16-4.24,7.7l-.9,1.67c-.64,1.14-1.68,2.77-3.37,3.88-2.64,1.81-6.08,1.77-9.43,1.73-.7,0-1.4-.02-2.08,0-.74-.02-1.46,0-2.19,0-2.73.04-5.56.08-8.01-1.21l-.16-.09c-1.61-.89-2.9-2.53-3.95-5.01-8.15-18.84-16.68-37.82-25.34-56.4-1.17-2.31-1.36-3.99-.57-5.24,1.32-2.11,4.94-2.04,9.13-1.96.8.03,1.61.01,2.41,0,3.25-.07,6.92-.16,8.04,3.49,1.95,4.67,4.49,10.96,7.19,17.61,3.78,9.35,7.69,19.02,10.17,24.71.39.9.85,1.96,1.33,3.07.89,2.08,1.82,4.23,2.51,5.69l.1.19c.2.4.41.81.66,1.07.37-.38,1-1.42,1.39-2.08,2.32-3.96,5.51-9.62,7.48-13.2,3.68-5.68,2.61-8.12,0-14.01l-.04-.1c-2.49-5.99-5.44-12.87-7.7-17.97-1.26-2.53-2.32-4.98-1.24-6.66.92-1.43,3.05-1.94,7.38-1.8,5.41-.2,10.5.14,12.3,6.43.23.46.47,1.23.86,2.48.47,1.52,1.91,6.13,2.85,6.41.71-.35,2.15-3.17,2.93-4.69.28-.55.55-1.08.8-1.54l.05-.11c2.12-4.48,4.28-9.1,11.55-8.96.69.02,1.43,0,2.19,0,3.01-.05,5.85-.1,6.98,1.54.54.78.57,1.78.1,2.96l-.05.1c-1.92,3.56-4.17,7.43-6.34,11.17-2.13,3.67-4.34,7.47-6.2,10.91-.27.52-.57,1.04-.86,1.57-.95,1.7-1.85,3.3-2.18,4.95-.34,2.01.31,3.58,1.22,5.75.21.51.43,1.04.65,1.61,1.25,3.02,2.83,6.78,4.13,9.79.39.77.75,1.67,1.11,2.54.37.91.91,2.22,1.3,2.77,2.11-3.35,5.75-9.87,8.96-15.63,1.97-3.54,3.84-6.88,4.97-8.81,2.09-3.71,4.6-8.31,7.02-12.76,1.46-2.68,2.86-5.24,4.05-7.41.51-.92.96-1.78,1.38-2.59,3.09-5.92,4.78-9.19,15.33-8.49.56.02,1.21.01,1.88,0,2.55-.05,4.96-.09,5.83,1.47.76,1.36-.28,3-.63,3.54-1.54,2.61-3.58,5.97-5.56,9.21-1.13,1.85-2.2,3.62-3.09,5.09-2.82,4.57-6.5,10.95-10.4,17.71-5.8,10.06-12.38,21.47-17.8,29.82l-.07.09c-2.19,2.68-5.6,3-8.86,3ZM445.44,117.98c.4,0,.79,0,1.17.02h.97c3.38.07,6.88.12,8.82-2.2,5.39-8.3,11.94-19.66,17.72-29.68,3.9-6.77,7.59-13.16,10.42-17.75.88-1.46,1.96-3.23,3.08-5.09,1.97-3.24,4.01-6.6,5.56-9.22.74-1.17.59-1.52.59-1.52-.29-.52-2.83-.47-4.05-.45-.71.01-1.4.02-2.02,0-9.27-.62-10.48,1.74-13.45,7.42-.43.82-.88,1.7-1.4,2.63-1.19,2.16-2.59,4.72-4.05,7.4-2.43,4.46-4.94,9.06-7.05,12.8-1.13,1.93-2.99,5.26-4.96,8.78-3.32,5.95-7.07,12.68-9.19,16l-.07.09c-.6.73-1.23.81-1.65.75-1.31-.2-2-1.87-2.95-4.19-.34-.84-.7-1.7-1.07-2.45-1.33-3.07-2.92-6.84-4.17-9.89-.22-.57-.44-1.09-.64-1.59-.96-2.3-1.78-4.28-1.34-6.89.4-1.99,1.42-3.81,2.41-5.57.29-.51.57-1.02.84-1.53,1.87-3.48,4.09-7.29,6.23-10.98,2.16-3.71,4.38-7.54,6.28-11.06.12-.3.26-.79.09-1.03-.52-.76-3.4-.71-5.3-.68-.79.01-1.56.03-2.27,0-5.92-.13-7.59,3.38-9.69,7.82l-.08.16c-.27.5-.53,1.01-.81,1.55-1.53,2.99-2.63,5-3.89,5.57-.48.25-1.05.28-1.6.05-1.7-.71-2.76-3.75-3.98-7.66-.3-.95-.6-1.93-.76-2.22l-.09-.22c-1.28-4.59-4.37-5.29-10.4-5.07-3.36-.11-5.26.19-5.71.88-.49.76.42,2.82,1.37,4.73,2.29,5.15,5.24,12.04,7.73,18.03l.03.07c2.65,6.01,4.11,9.32-.12,15.85-1.95,3.53-5.14,9.21-7.47,13.19-1.15,1.94-2.24,3.78-3.84,3-.92-.54-1.36-1.4-1.71-2.09l-.11-.21c-.72-1.52-1.65-3.69-2.56-5.79-.47-1.1-.93-2.16-1.32-3.05-2.49-5.73-6.41-15.41-10.2-24.77-2.7-6.67-5.25-12.97-7.2-17.64l-.04-.1c-.63-2.13-2.73-2.19-6.1-2.11-.82.02-1.67.04-2.51,0-3.11-.06-6.66-.13-7.38,1.02-.36.57-.12,1.71.68,3.3,8.68,18.63,17.22,37.62,25.38,56.49.87,2.06,1.88,3.39,3.08,4.05l.14.08c1.97,1.04,4.55,1,7.02.97.76-.01,1.5-.02,2.23,0,.66-.01,1.37,0,2.1,0,3.03.04,6.16.07,8.29-1.39,1.02-.67,1.88-1.68,2.73-3.18l.89-1.66c1.38-2.56,2.8-5.21,4.26-7.74.95-1.67,2.14-3.37,3.78-3.28,1.63.1,2.58,1.94,3.14,3.31,1.09,2.51,2.1,5.12,3.07,7.65l.58,1.49c.82,2.09,1.88,3.36,3.32,4,1.95.9,4.75.85,7.46.81.57,0,1.15-.02,1.72-.02Z"/><path d="M217.9,116.41c-1.81-1.47-3.43-7.9-1.22-9.35,2.26-.98,6.6,1.01,10.14,1.55,5.86,1.1,12.2,1.63,17.7-.74,6.09-2.66,5.61-8.67,1.09-12.34-7.7-6.94-19.48-12.69-24.94-21.09-5.86-9.75,1.74-20.59,13.65-23.2,6.75-1.63,13.93-1.56,20.79-1,8.39.46,12.14,2.46,10.95,10-1.27,3.65-8.13.52-11.96.54-2.92-.25-5.94-.23-8.79.4-5.81,1.04-10.04,5.84-6.81,10.43,2.57,3.72,6.82,5.95,10.63,8.84,2.67,1.94,5.41,3.99,8.02,6.01,3.46,2.69,7.18,5.87,9.1,9.61,3.46,6.5.73,14.59-5.87,18.9-6.84,4.59-15.99,5.46-24.47,5.19-4.4-.18-8.48-.62-12.83-1.37-1.88-.36-3.77-1.02-5.06-2.25l-.12-.11Z"/><path d="M238.48,121.18c-.85,0-1.72-.01-2.61-.04-4.42-.18-8.53-.62-12.97-1.38-2.45-.47-4.32-1.31-5.58-2.51l-.1-.09c-1.51-1.27-2.75-4.91-2.61-7.67.1-1.95.88-2.85,1.51-3.27l.15-.08c1.82-.79,4.35-.1,7.04.62,1.23.33,2.51.68,3.65.85,5.07.95,11.57,1.73,17.16-.67,2.28-.99,3.62-2.52,3.88-4.41.29-2.13-.84-4.46-3.02-6.24-2.8-2.52-6.04-4.82-9.48-7.25-5.95-4.21-12.1-8.57-15.67-14.07-2.51-4.18-2.86-8.85-.99-13.18,2.41-5.58,8.25-10,15.26-11.54,7.62-1.84,15.68-1.46,21.08-1.02,5.66.31,8.82,1.36,10.56,3.5,1.43,1.77,1.84,4.2,1.3,7.64l-.04.17c-1.16,3.35-5.29,2.52-8.93,1.78-1.48-.3-2.87-.58-3.95-.58h-.02c-3.34-.29-6.12-.16-8.58.37-3.25.58-5.91,2.38-6.82,4.6-.59,1.43-.38,2.87.61,4.28,1.79,2.59,4.45,4.43,7.27,6.38,1.04.72,2.11,1.46,3.14,2.24,2.6,1.89,5.38,3.97,8.03,6.01,3.7,2.88,7.4,6.07,9.38,9.95,3.63,6.82.96,15.5-6.22,20.19-5.4,3.62-12.76,5.4-22.43,5.4ZM217.16,107.94c-.31.25-.5.85-.55,1.65-.12,2.21.98,5.28,1.91,6.04l.18.17c.97.92,2.51,1.59,4.56,1.98,4.33.74,8.36,1.17,12.68,1.35,10.53.32,18.33-1.32,23.87-5.03,6.32-4.12,8.7-11.68,5.55-17.6-1.81-3.54-5.31-6.56-8.83-9.29-2.63-2.02-5.39-4.09-8-5.98-1.02-.77-2.07-1.5-3.08-2.2-2.84-1.97-5.79-4-7.77-6.88-1.37-1.94-1.66-4.14-.82-6.19,1.16-2.83,4.41-5.1,8.28-5.8,2.62-.57,5.6-.71,9.05-.41,1.24,0,2.7.29,4.29.61,3.49.7,6.01,1.08,6.62-.41.43-2.79.14-4.69-.89-5.98-1.34-1.66-4.08-2.49-9.14-2.77-5.29-.43-13.14-.8-20.5.97-6.41,1.41-11.72,5.38-13.88,10.38-1.63,3.78-1.34,7.7.85,11.33,3.35,5.15,9.34,9.39,15.13,13.5,3.33,2.36,6.78,4.8,9.62,7.37,2.69,2.19,4.09,5.2,3.7,8.03-.35,2.58-2.15,4.7-5.06,5.98-6.09,2.62-12.97,1.81-18.29.8-1.22-.19-2.55-.54-3.84-.89-2.18-.59-4.44-1.2-5.63-.76Z"/><path d="M490.98,96.74c-1.71-1.61-1.17-5.51-.06-7.37,1.77-2.31,5.52-1.62,8.86-1.69,5.78.18,11.6-.2,17.69.08,2.24.26,3.31,1.3,3.39,3.17.02,2.09.04,4.95-2.39,6.13-1.93.95-5.34.54-7.96.57-4.79-.06-8.96-.05-14.04.05-1.73.04-4.18.08-5.38-.86l-.1-.08Z"/><path d="M495.3,98.7c-1.7,0-3.63-.15-4.84-1.09l-.17-.14c-2.13-2.01-1.57-6.37-.23-8.61l.07-.1c1.72-2.24,4.73-2.17,7.62-2.1.67.02,1.35.03,2.01.02,2.67.08,5.24.04,7.97,0,3.17-.04,6.45-.09,9.79.07,3.46.4,4.27,2.46,4.34,4.12.03,2.12.07,5.6-2.95,7.08-1.69.83-4.1.76-6.44.7-.68-.02-1.34-.04-1.95-.03-4.76-.06-8.95-.05-14.04.05-.37,0-.77.02-1.18.02ZM491.64,95.99l.06.05c.93.73,3.32.68,4.74.65,5.11-.1,9.32-.11,14.08-.05.62,0,1.3.01,2,.03,1.99.05,4.25.12,5.5-.5,1.74-.85,1.86-2.87,1.83-5.22-.04-.98-.38-1.95-2.51-2.19-3.21-.14-6.46-.1-9.6-.06-2.63.04-5.34.07-8,0-.64.01-1.34,0-2.04-.02-2.48-.06-4.83-.12-5.95,1.27-.91,1.58-1.32,4.86-.11,6.05Z"/><path d="M644.18,49.88c32.81-.18,50.89,21.47,40.71,47.73-8.02,20.85-38.83,26.22-61.19,20.45-15.82-3.83-26.39-15.03-26.92-29.06-1.56-24.76,19.27-39.16,47.2-39.12h.2ZM642.99,60.48c-23.17-.27-34.19,20.73-25.52,37.21,6.1,11.15,23.8,14.33,36.37,9.72,6.53-2.35,11.42-7.04,13.81-12.78,6.59-16.25-2.07-34.31-24.46-34.15h-.2Z"/><path d="M641.42,121.27c-6.12,0-12.24-.75-17.97-2.23-16.26-3.94-27.13-15.71-27.67-29.99-.64-10.14,2.45-19.15,8.93-26.03,8.57-9.11,22.47-14.12,39.14-14.12h.33c.13,0,.27,0,.41,0,17.28,0,31.38,6.11,38.74,16.79,6.2,9,7.08,20.47,2.5,32.3-6.09,15.84-25.18,23.29-44.4,23.29ZM643.84,50.88c-16.12,0-29.5,4.79-37.68,13.49-6.09,6.47-8.99,14.97-8.39,24.56.51,13.59,10.54,24.37,26.15,28.15,22.93,5.92,52.39,0,60.02-19.84,4.34-11.2,3.53-22.01-2.28-30.44-6.98-10.13-20.49-15.93-37.09-15.93-.13,0-.27,0-.4,0h-.21s-.09,0-.13,0ZM641.91,110.42c-10.24,0-20.78-3.96-25.32-12.25-4.35-8.26-4.08-17.84.7-25.65,5.15-8.42,14.48-13.17,25.7-13.04h.19c10.38-.1,18.79,3.77,23.57,10.81,4.65,6.85,5.33,16.08,1.83,24.72-2.53,6.1-7.78,10.96-14.4,13.34-3.73,1.37-7.98,2.07-12.28,2.07ZM642.55,61.48c-10.28,0-18.84,4.39-23.55,12.08-4.41,7.2-4.65,16.05-.64,23.66,5.94,10.86,23.3,13.59,35.15,9.25,6.1-2.19,10.92-6.65,13.23-12.22,3.25-8,2.64-16.54-1.63-22.83-4.35-6.41-12.02-9.93-21.63-9.93-.09,0-.18,0-.27,0h-.22c-.14,0-.29,0-.43,0Z"/><path d="M697.84,116.41c-1.81-1.47-3.43-7.9-1.22-9.35,2.26-.98,6.6,1.01,10.14,1.55,5.86,1.1,12.2,1.63,17.7-.74,6.09-2.66,5.61-8.67,1.09-12.34-7.7-6.94-19.48-12.69-24.94-21.09-5.86-9.75,1.74-20.59,13.65-23.2,6.75-1.63,13.93-1.56,20.79-1,8.39.46,12.14,2.46,10.95,10-1.27,3.65-8.13.52-11.96.54-2.92-.25-5.94-.23-8.79.4-5.81,1.04-10.04,5.84-6.81,10.43,2.57,3.72,6.82,5.95,10.63,8.84,2.67,1.94,5.41,3.99,8.02,6.01,3.46,2.69,7.18,5.87,9.1,9.61,3.46,6.5.73,14.59-5.87,18.9-6.84,4.59-15.99,5.46-24.47,5.19-4.4-.18-8.48-.62-12.83-1.37-1.88-.36-3.77-1.02-5.06-2.25l-.12-.11Z"/><path d="M718.42,121.18c-.85,0-1.72-.01-2.61-.04-4.42-.18-8.53-.62-12.96-1.38-2.45-.47-4.32-1.31-5.58-2.51l-.1-.09c-1.51-1.27-2.75-4.91-2.61-7.67.1-1.95.88-2.85,1.51-3.27l.15-.08c1.82-.79,4.35-.1,7.04.62,1.23.33,2.51.68,3.65.85,5.07.95,11.57,1.73,17.16-.67,2.28-.99,3.62-2.52,3.88-4.41.29-2.13-.84-4.46-3.02-6.24-2.8-2.52-6.04-4.82-9.48-7.25-5.95-4.21-12.1-8.57-15.67-14.07-2.51-4.18-2.86-8.85-.99-13.18,2.41-5.58,8.25-10,15.26-11.54,7.62-1.84,15.68-1.46,21.08-1.02,5.66.31,8.82,1.36,10.56,3.5,1.43,1.77,1.84,4.2,1.3,7.64l-.04.17c-1.16,3.35-5.29,2.52-8.93,1.78-1.47-.3-2.87-.58-3.95-.58h-.02c-3.34-.29-6.12-.17-8.58.37-3.25.58-5.91,2.38-6.82,4.59-.59,1.43-.38,2.87.61,4.28,1.79,2.59,4.45,4.43,7.27,6.38,1.04.72,2.11,1.46,3.14,2.24,2.61,1.9,5.39,3.98,8.03,6.01,3.7,2.88,7.4,6.07,9.38,9.95,3.63,6.82.96,15.51-6.22,20.19-5.41,3.62-12.77,5.4-22.43,5.4ZM697.11,107.94c-.31.25-.5.85-.55,1.65-.12,2.21.98,5.28,1.91,6.04l.18.17c.97.92,2.5,1.59,4.55,1.98,4.33.74,8.36,1.17,12.68,1.35,10.53.32,18.34-1.32,23.87-5.03,6.32-4.12,8.7-11.68,5.55-17.6-1.81-3.54-5.31-6.56-8.83-9.29-2.62-2.01-5.38-4.09-8-5.98-1.02-.77-2.07-1.5-3.09-2.2-2.84-1.97-5.78-4-7.77-6.88-1.37-1.94-1.66-4.14-.82-6.19,1.16-2.83,4.41-5.1,8.28-5.8,2.62-.57,5.6-.71,9.05-.41,1.2-.03,2.7.29,4.29.61,3.49.7,6.02,1.08,6.62-.41.43-2.79.14-4.69-.89-5.98-1.34-1.66-4.08-2.49-9.14-2.77-5.29-.43-13.14-.8-20.5.97-6.41,1.41-11.72,5.38-13.88,10.38-1.63,3.78-1.33,7.7.85,11.33,3.35,5.15,9.34,9.4,15.13,13.5,3.33,2.36,6.78,4.8,9.62,7.37,2.69,2.19,4.09,5.2,3.7,8.03-.35,2.58-2.15,4.7-5.06,5.98-6.09,2.62-12.97,1.81-18.29.8-1.22-.19-2.55-.54-3.84-.89-2.18-.59-4.44-1.2-5.63-.76Z"/><path d="M361.84,114.44c-7.07-15.61-16.55-36.5-21.99-49.13-1.88-3.9-3.23-8.72-5.72-12.34-2.14-2.43-5.49-1.76-9.43-1.87-3.37.08-6.92-.26-10.21.45-3.88.72-5.93,3.54-7.48,6.39-2.4,3.93-5.65,9.11-8.03,12.81-7.35,11.49-14.77,23.22-22.22,34.78-2,3.09-3.92,5.97-5.68,8.62-1.39,1.97-1.9,4.14,1.41,4.62,1.24.22,2.62.24,3.93.24,3.5-.05,7.35.31,10.35-.94,2.02-.78,3.3-2.33,4.25-4.01,2.69-4.74,5.47-9.62,8.22-14.27,4.72-7.97,8.6-16.17,13.6-24.01,2.56-4.22,3.94-6.6,6.08-10.16.52-.85,1.69-2.78,2.48-2.61.64.19.96,1.02,1.27,1.66,1.82,4.73,5.95,13.29,7.4,18.38.04.88-.62,1.24-2.19,1.38-2.47.19-6.28.07-8.98.11-4-.13-6.79.61-8.25,3.94-3.28,6.4-2.64,6.56,4.96,6.43,3.7,0,8.51,0,12.07,0,4.97-.13,7.08.71,8.44,4.16,1.79,3.95,4.21,9.75,5.98,14.26,1.29,4.26,5.15,5.86,10.15,5.68,4.05-.08,12.39,1.01,9.62-4.46l-.05-.1Z"/><path d="M356.1,120.03c-.62,0-1.24-.01-1.85-.02-.72-.01-1.39-.03-1.97-.01-5.94.21-9.8-1.99-11.13-6.39-1.8-4.59-4.2-10.31-5.93-14.14-1.16-2.94-2.76-3.7-7.51-3.58-2.13,0-4.66,0-7.15,0h-4.95c-4.24.07-6.59.11-7.51-1.36-.86-1.38.05-3.39,1.65-6.52,1.81-4.15,5.65-4.6,9.17-4.48.87-.01,1.92-.01,3,0,2.1,0,4.28.02,5.87-.1.89-.08,1.18-.22,1.26-.27-.93-3.21-2.94-7.82-4.71-11.9-1.01-2.33-1.96-4.52-2.62-6.23l-.09-.17c-.09-.2-.26-.55-.41-.75-.25.22-.68.75-1.42,1.94l-.06.09c-.78,1.31-1.47,2.47-2.16,3.61-1.16,1.95-2.31,3.88-3.92,6.54-2.88,4.51-5.42,9.22-7.89,13.77-1.82,3.37-3.7,6.84-5.71,10.24-2.79,4.7-5.58,9.62-8.21,14.25-1.29,2.28-2.81,3.7-4.76,4.45-2.54,1.06-5.58,1.04-8.52,1.01-.73,0-1.46-.01-2.17,0-1.38,0-2.82-.02-4.12-.25-1.6-.23-2.65-.87-3.09-1.91-.5-1.15-.15-2.59,1.04-4.27,1.75-2.62,3.66-5.5,5.66-8.58,4.66-7.22,9.37-14.62,13.93-21.78,2.77-4.35,5.54-8.69,8.29-13,2.11-3.3,5.48-8.63,8.02-12.8,1.59-2.92,3.83-6.05,8.16-6.85,2.44-.53,5.03-.49,7.52-.47.96.01,1.91.02,2.85,0,.84.02,1.61.01,2.34,0,3.01-.04,5.85-.07,7.86,2.21l.07.09c1.66,2.42,2.82,5.31,3.93,8.1.62,1.55,1.2,3.01,1.86,4.38,5.34,12.38,14.69,33.02,21.52,48.09l.53,1.17c.78,1.53.85,2.85.21,3.88-1.11,1.77-3.98,2.03-6.9,2.03ZM352.79,117.99c.47,0,.98,0,1.5.02,2.35.04,6.27.12,7.02-1.07.31-.49,0-1.33-.32-1.95l-.55-1.21c-6.83-15.08-16.19-35.73-21.52-48.08-.67-1.39-1.3-2.95-1.9-4.46-1.07-2.67-2.17-5.43-3.69-7.65-1.4-1.55-3.56-1.52-6.29-1.49-.76.01-1.56.02-2.37,0-.91.02-1.89.01-2.86,0-2.39-.03-4.85-.06-7.1.43-3.52.65-5.36,3.22-6.82,5.89-2.57,4.22-5.95,9.57-8.06,12.87-2.76,4.31-5.52,8.65-8.29,13-4.56,7.16-9.27,14.56-13.93,21.79-2,3.09-3.92,5.98-5.69,8.63-.86,1.22-1,2.01-.85,2.35.14.33.72.6,1.58.72,1.18.21,2.46.23,3.79.23.71-.01,1.46,0,2.2,0,2.74.02,5.57.05,7.76-.87,1.53-.59,2.71-1.72,3.77-3.58,2.63-4.64,5.44-9.57,8.23-14.29,1.99-3.36,3.86-6.82,5.68-10.17,2.48-4.58,5.04-9.32,7.95-13.87,1.59-2.63,2.74-4.56,3.9-6.51.68-1.15,1.37-2.31,2.17-3.63l.06-.1c1.07-1.73,2.14-3.26,3.48-2.96,1.06.31,1.51,1.26,1.85,1.96l.11.23c.68,1.75,1.62,3.93,2.62,6.24,1.82,4.21,3.89,8.97,4.84,12.31l.04.22c.11,2.14-2.23,2.35-3.1,2.43-1.69.13-3.9.12-6.04.11-1.07,0-2.1,0-3.01,0-4.24-.14-6.22.77-7.35,3.34-.59,1.16-2.09,4.08-1.76,4.6.32.52,3.49.46,5.79.42h4.96c2.49,0,5.02,0,7.13,0,4.79-.12,7.72.61,9.37,4.8,1.73,3.82,4.14,9.57,5.98,14.27,1.08,3.56,4.16,5.21,9.18,5.04.18,0,.37,0,.57,0Z"/><path d="M588.21,61.03c-5.69-11.01-19.84-10.19-31.89-9.97-5.14.09-10.5.2-15.52.17-3.47-.12-8.28.07-9.3,3.42-.9,4.3-.23,7.27-.64,12.2-.12,3.35-.31,8.3-.41,11.06-.32,7.97-.88,16.24-1.32,24.31-.21,3.67-.28,4.91-.56,8.12-.05,2.5-1.17,5.84,1.01,7.82,2.35,1.57,6.62.79,9.84.9,7.64-.33,5.49-6.1,5.89-10.74.26-10.19.68-20.56,1.08-30.66,1.19-13.79-2.74-17.94,17.5-16.02,7.92.84,10.75,8.04,6.92,13.58-2.14,3.26-6.37,5.16-10.66,5.64-2.86.38-5.69.12-7.42,1.19-1.66.96-2.71,3.22-2.4,5.15.2,1.76,1.51,2.92,3.7,3.26,11.57,1.62,25.07-.76,31.8-9.37,4.55-5.72,5.58-13.53,2.45-19.9l-.08-.15Z"/><path d="M534.37,120.16c-2,0-3.92-.2-5.36-1.17l-.12-.09c-2.05-1.86-1.74-4.6-1.49-6.8.07-.64.14-1.24.15-1.79.29-3.32.36-4.54.57-8.16.15-2.83.32-5.68.49-8.54.31-5.21.62-10.59.83-15.76l.42-11.05c.16-2.01.15-3.65.14-5.24-.02-2.31-.04-4.48.52-7.13,1.38-4.53,7.87-4.3,10.32-4.21,4.35.02,9.01-.06,13.52-.14l3.62-.07c11.91-.24,25.41-.51,31.12,10.55l.08.15c3.28,6.68,2.27,14.91-2.56,20.98-7.45,9.53-22.29,11.2-32.72,9.74-2.65-.42-4.3-1.92-4.56-4.14-.37-2.3.87-4.95,2.89-6.12,1.38-.86,3.25-.97,5.22-1.1.84-.05,1.71-.11,2.57-.22,4.43-.49,8.15-2.43,9.96-5.19,1.64-2.38,1.97-5.18.9-7.52-1.15-2.51-3.74-4.16-7.09-4.52-8.48-.8-12.65-.5-14.4,1.05-1.51,1.33-1.58,3.95-1.69,7.92-.05,1.79-.11,3.83-.31,6.15l-.08,2.13c-.37,9.35-.76,19.02-.99,28.47-.08.97-.06,1.96-.03,2.92.1,3.78.22,8.48-6.82,8.79-.93-.03-1.85,0-2.82.04-.75.03-1.51.06-2.26.06ZM530.19,117.37c1.45.92,3.95.82,6.37.73.97-.04,1.97-.07,2.89-.04,5-.22,4.93-2.81,4.83-6.74-.03-1.02-.05-2.07.04-3.09.23-9.4.62-19.08.99-28.43l.09-2.18c.2-2.31.25-4.31.3-6.08.12-4.33.21-7.45,2.36-9.36,2.27-2.01,6.59-2.43,15.93-1.54,4.09.44,7.25,2.5,8.71,5.67,1.37,2.99.97,6.53-1.06,9.47-2.12,3.23-6.38,5.51-11.38,6.06-.91.12-1.81.18-2.68.23-1.72.11-3.34.21-4.32.81-1.32.77-2.18,2.62-1.94,4.14.19,1.67,1.67,2.24,2.87,2.43,9.9,1.39,23.93-.13,30.86-9,4.36-5.48,5.28-12.87,2.34-18.85l-.07-.13c-5.14-9.95-17.98-9.69-29.31-9.46l-3.63.07c-4.52.08-9.2.16-13.59.14-3.21-.11-7.53.05-8.34,2.71-.49,2.35-.47,4.33-.46,6.62.01,1.63.03,3.32-.14,5.37l-.41,11.01c-.21,5.19-.52,10.58-.83,15.8-.17,2.85-.33,5.7-.48,8.53-.2,3.55-.27,4.87-.57,8.16,0,.57-.09,1.24-.16,1.9-.22,1.99-.44,3.87.79,5.04Z"/><path d="M168.56,118.98c-10.98,23.19-33.51,41.25-58.75,46.52-44.32,9.25-84.42-17.77-100.74-58.09l1.14-1.63,74.64-38.68c8.53-4.31,23.67-6.01,32.46-2.14,1.21.53,1.82.77.9,1.93-.55.68-10.37,7.69-11.03,7.86-6.13,1.58-9.14-1.14-16.48,3.11-16.2,9.39-13.92,32.25,2.85,39.54,6.59,2.86,8.24,1.61,14.47,1.56,20.17-.17,40.36.18,60.53.03Z"/><path d="M100.72,7.76s5.06,12.36,13.3,13.05c11.53.96,9.51-19.3,9.51-19.3,0,0,5.95,15.62,8.22,15.24l2.54-3.39c.11,2.64.84,15.79,7.38,16.8,7.99,2.2,13.94-17.21,13.94-17.21,0,0,.66,14.58,4.71,18.39l4.22.18s-5.69,5.23-6.53,5.9c-10.29,8.17-21.91,14.85-32.1,23.22-2.35.67-5.27-1.56-7.71-2.18-19.46-4.95-30.76-.08-47.59,8.38-18.66,9.39-36.5,20.48-55.6,29.04-.73-1.07.82-2.42.39-3.8-2.44-7.82-15.41-7.74-15.41-7.74l16.25-6.08-1.14-3.05s7.2,3.54,7.8-5.39c.54-8.07-14.52-14.51-14.52-14.51l15.99-1.5-.81-3.13c3.55,2.03,11.79.95,12.68-2.56,2.76-10.9-11.07-17.99-11.07-17.99,0,0,16.14,3.54,17.18,2.13l-.4-2.82s12.71,6.93,16.7,3.74c9.68-7.74-6.2-22.63-6.2-22.63l13.65,6.76,1.38-4.66c1.44,3.35,10.08,11.43,16,11.06,15.92-1,3.88-23.72,3.88-23.72,0,0,10.17,12.37,12.7,11.66l.66-3.89Z"/><path d="M97.73,83.47c6.47-1.1,11.29.06,15.16,5.49,9.14,12.8-6.89,27.41-19.41,19.41-9.73-6.21-7.52-22.9,4.25-24.9ZM99.11,90.45c-6.04,1.39-6.34,11.02-.53,12.82,12.35,3.83,12.84-15.66.53-12.82Z"/><path d="M209.58,23.06c-.53-2.34-2.77-3.15-2.96-5.38l.49-1.27h3.8c-.35-1.54-1.44-2.42-2.21-3.48,2.4-.63.53-3.84-1.19-3.67l-93.49,68.8c11.35,8.38,12.12,23.18,3.49,33.92h58.06c-.59-2.61-3.32-3.32-2.95-6.22h3.91c-.4-1.77-1.79-2.67-2.52-3.97l.74-1.91h5.31c-.58-2.55-3.2-3.29-2.97-6.04l.18-.47h4.56c-.46-2.03-2.2-2.91-2.79-4.57l.59-1.53h5.19c-.55-2.44-2.97-3.22-2.98-5.67l.07-.17h4.3c-.43-1.89-1.98-2.78-2.66-4.24l.64-1.66h5.53c-.59-2.63-3.37-3.33-2.95-6.29h4.36c-.45-1.99-2.15-2.88-2.76-4.48l.67-1.72h5.26c-.57-2.5-3.1-3.26-2.98-5.89l.25-.64h3.86c-.38-1.68-1.64-2.57-2.4-3.77l.69-1.78h5.48c-.63-2.78-3.68-3.4-2.84-6.81l.17-.45h4.08c-.4-1.78-1.8-2.68-2.53-4l1.02-2.62h5.01c-.52-2.3-2.71-3.12-2.97-5.27l.87-2.23h4.2c-.42-1.84-1.9-2.73-2.6-4.12l.92-2.38h5.05Z"/></svg>